<svg width="24" height="24" viewBox="0 0 24 24" fill="none" xmlns="http://www.w3.org/2000/svg">
<path fill-rule="evenodd" clip-rule="evenodd" d="M11.5422 7.625C10.4285 7.625 9.36042 8.08594 8.57292 8.90641C7.78543 9.72688 7.34302 10.8397 7.34302 12C7.34302 13.1603 7.78543 14.2731 8.57292 15.0936C9.36042 15.9141 10.4285 16.375 11.5422 16.375C12.6559 16.375 13.7239 15.9141 14.5114 15.0936C15.2989 14.2731 15.7413 13.1603 15.7413 12C15.7413 10.8397 15.2989 9.72688 14.5114 8.90641C13.7239 8.08594 12.6559 7.625 11.5422 7.625ZM8.78273 12C8.78273 11.2375 9.07346 10.5062 9.59095 9.96707C10.1085 9.4279 10.8103 9.125 11.5422 9.125C12.274 9.125 12.9759 9.4279 13.4934 9.96707C14.0109 10.5062 14.3016 11.2375 14.3016 12C14.3016 12.7625 14.0109 13.4938 13.4934 14.0329C12.9759 14.5721 12.274 14.875 11.5422 14.875C10.8103 14.875 10.1085 14.5721 9.59095 14.0329C9.07346 13.4938 8.78273 12.7625 8.78273 12Z" fill="#22577A"/>
<path fill-rule="evenodd" clip-rule="evenodd" d="M11.5421 4.5C7.40344 4.5 3.83967 7.056 2.21088 10.735C2.03528 11.1316 1.94434 11.5632 1.94434 12C1.94434 12.4368 2.03528 12.8684 2.21088 13.265C3.83967 16.944 7.40344 19.5 11.5421 19.5C15.6808 19.5 19.2456 16.944 20.8743 13.265C21.2295 12.463 21.2295 11.537 20.8743 10.735C19.2456 7.056 15.6818 4.5 11.5421 4.5ZM3.51814 11.363C4.92138 8.194 7.98797 6 11.5421 6C15.0973 6 18.1638 8.194 19.5661 11.363C19.7456 11.767 19.7456 12.233 19.5661 12.637C18.1648 15.806 15.0982 18 11.5431 18C7.98797 18 4.92234 15.806 3.5191 12.637C3.43062 12.4373 3.38481 12.22 3.38481 12C3.38481 11.78 3.42967 11.5627 3.51814 11.363Z" fill="#22577A"/>
</svg>
