<svg width="20" height="20" viewBox="0 0 22 22" fill="none" xmlns="http://www.w3.org/2000/svg">
<path d="M20.5156 9.59374L14.5681 7.43187L12.4062 1.48437C12.2997 1.1973 12.1078 0.949725 11.8565 0.774892C11.6051 0.600059 11.3062 0.506348 11 0.506348C10.6938 0.506348 10.3949 0.600059 10.1435 0.774892C9.89215 0.949725 9.7003 1.1973 9.59374 1.48437L7.43187 7.43187L1.48437 9.59374C1.1973 9.7003 0.949725 9.89215 0.774892 10.1435C0.600059 10.3949 0.506348 10.6938 0.506348 11C0.506348 11.3062 0.600059 11.6051 0.774892 11.8565C0.949725 12.1078 1.1973 12.2997 1.48437 12.4062L7.43187 14.5691L9.59374 20.5156C9.7003 20.8027 9.89215 21.0503 10.1435 21.2251C10.3949 21.3999 10.6938 21.4936 11 21.4936C11.3062 21.4936 11.6051 21.3999 11.8565 21.2251C12.1078 21.0503 12.2997 20.8027 12.4062 20.5156L14.5691 14.5681L20.5156 12.4062C20.8027 12.2997 21.0503 12.1078 21.2251 11.8565C21.3999 11.6051 21.4936 11.3062 21.4936 11C21.4936 10.6938 21.3999 10.3949 21.2251 10.1435C21.0503 9.89215 20.8027 9.7003 20.5156 9.59374ZM13.7262 13.2781C13.6234 13.3156 13.5299 13.3751 13.4525 13.4525C13.3751 13.5299 13.3156 13.6234 13.2781 13.7262L11 19.9906L8.72187 13.7262C8.68441 13.6234 8.62488 13.5299 8.54746 13.4525C8.47005 13.3751 8.37662 13.3156 8.27374 13.2781L2.00937 11L8.27374 8.72187C8.37662 8.68441 8.47005 8.62488 8.54746 8.54746C8.62488 8.47005 8.68441 8.37662 8.72187 8.27374L11 2.00937L13.2781 8.27374C13.3156 8.37662 13.3751 8.47005 13.4525 8.54746C13.5299 8.62488 13.6234 8.68441 13.7262 8.72187L19.9906 11L13.7262 13.2781Z" fill="#22577A"/>
</svg>
