<svg width="247" height="184" viewBox="0 0 247 184" fill="none" xmlns="http://www.w3.org/2000/svg">
<path fill-rule="evenodd" clip-rule="evenodd" d="M-42.3428 208.343V245H-41.3428V208.343H-0.394547V245H0.605453V208.343H41.5518V245H42.5518V208.343H83.5V245H84.5V208.343H125.448V245H126.448V208.343H167.395V245H168.395V208.343L209.343 208.343V245H210.343V208.343H247V207.343H210.343V166.395H247V165.395H210.343V124.448H247V123.448H210.343V82.5H247V81.5H210.343V40.5518H247V39.5518H210.343V-1.39494H247V-2.39494H210.343V-43.3431H247V-44.3431H210.343V-82H209.343V-44.3431L168.395 -44.3432V-82H167.395V-44.3432L126.448 -44.3432V-82H125.448V-44.3432L84.5 -44.3432V-82H83.5V-44.3432L42.5518 -44.3432V-82H41.5518V-44.3432L0.605469 -44.3432V-82H-0.394531V-44.3432L-41.3428 -44.3432V-82H-42.3428V-44.3432L-80 -44.3432V-43.3432L-42.3428 -43.3432L-42.3428 -2.39497H-80V-1.39497H-42.3428V39.5518H-80V40.5518H-42.3428L-42.3428 81.5H-80V82.5H-42.3428L-42.3428 123.448H-80V124.448H-42.3428V165.395H-80V166.395H-42.3428L-42.3428 207.343H-80V208.343H-42.3428ZM209.343 -43.3431L168.395 -43.3432V-2.39495L209.343 -2.39494V-43.3431ZM209.343 -1.39494L168.395 -1.39495V39.5518L209.343 39.5518V-1.39494ZM209.343 40.5518L168.395 40.5518V81.5L209.343 81.5V40.5518ZM209.343 82.5L168.395 82.5V123.448L209.343 123.448V82.5ZM209.343 124.448L168.395 124.448V165.395L209.343 165.395V124.448ZM209.343 166.395L168.395 166.395V207.343L209.343 207.343V166.395ZM167.395 166.395V207.343H126.448V166.395H167.395ZM167.395 124.448V165.395H126.448V124.448H167.395ZM167.395 82.5V123.448H126.448V82.5H167.395ZM167.395 40.5518V81.5H126.448V40.5518H167.395ZM167.395 -1.39495V39.5518H126.448V-1.39495H167.395ZM167.395 -43.3432V-2.39495H126.448V-43.3432L167.395 -43.3432ZM125.448 -43.3432L84.5 -43.3432V-2.39496L125.448 -2.39495V-43.3432ZM125.448 -1.39495L84.5 -1.39496V39.5518L125.448 39.5518V-1.39495ZM125.448 40.5518L84.5 40.5518V81.5L125.448 81.5V40.5518ZM125.448 82.5L84.5 82.5V123.448L125.448 123.448V82.5ZM125.448 124.448L84.5 124.448V165.395H125.448V124.448ZM125.448 166.395H84.5V207.343H125.448V166.395ZM83.5 166.395V207.343H42.5518V166.395H83.5ZM83.5 124.448V165.395H42.5518L42.5518 124.448H83.5ZM83.5 82.5V123.448H42.5518V82.5H83.5ZM83.5 40.5518V81.5H42.5518V40.5518H83.5ZM83.5 -1.39496V39.5518H42.5518L42.5518 -1.39496H83.5ZM83.5 -43.3432V-2.39496H42.5518V-43.3432L83.5 -43.3432ZM41.5518 -43.3432L0.605469 -43.3432V-2.39497H41.5518V-43.3432ZM41.5518 -1.39497H0.605469L0.605461 39.5518H41.5518L41.5518 -1.39497ZM41.5518 40.5518H0.605461V81.5H41.5518V40.5518ZM41.5518 82.5H0.605461V123.448H41.5518V82.5ZM41.5518 124.448H0.605461L0.605453 165.395H41.5518L41.5518 124.448ZM41.5518 166.395H0.605453V207.343H41.5518V166.395ZM-0.394547 166.395V207.343H-41.3428L-41.3428 166.395H-0.394547ZM-0.394539 124.448L-0.394547 165.395H-41.3428V124.448H-0.394539ZM-0.394539 82.5V123.448H-41.3428L-41.3428 82.5H-0.394539ZM-0.394539 40.5518V81.5H-41.3428L-41.3428 40.5518H-0.394539ZM-0.394531 -1.39497L-0.394539 39.5518H-41.3428V-1.39497L-0.394531 -1.39497ZM-0.394531 -43.3432V-2.39497L-41.3428 -2.39497L-41.3428 -43.3432L-0.394531 -43.3432Z" fill="url(#paint0_radial_235_3509)" fill-opacity="0.8"/>
<defs>
<radialGradient id="paint0_radial_235_3509" cx="0" cy="0" r="1" gradientUnits="userSpaceOnUse" gradientTransform="translate(83.5 81.5) rotate(90) scale(163.5)">
<stop stop-color="#B9D719"/>
<stop offset="0.524" stop-color="#2B2B2B"/>
</radialGradient>
</defs>
</svg>
