<svg width="320" height="228" viewBox="0 0 320 228" fill="none" xmlns="http://www.w3.org/2000/svg">
<g clip-path="url(#clip0_58_356)">
<rect width="320" height="228" fill="#2B2B2B"/>
<path fill-rule="evenodd" clip-rule="evenodd" d="M-13.484 65.4841L-13.484 76H-12.484L-12.484 65.4841H-0.655817V76H0.344183V65.4841H12.1718V76H13.1718V65.4841H25V76H26V65.4841H37.8282V76H38.8282V65.4841H50.6558V76H51.6558V65.4841L63.484 65.4841V76H64.484V65.4841H75V64.4841H64.484V52.656H75V51.656H64.484V39.8282H75V38.8282H64.484V27H75V26H64.484V14.1718H75V13.1718H64.484V1.34402H75V0.344025H64.484V-11.4841L75 -11.4841V-12.4841L64.484 -12.4841V-24H63.484V-12.4841L51.6558 -12.4841V-24H50.6558V-12.4841L38.8282 -12.4841V-24H37.8282V-12.4841L26 -12.4841V-24H25V-12.4841L13.1718 -12.4841V-24H12.1718V-12.4841L0.344187 -12.4841V-24H-0.655813V-12.4841L-12.484 -12.4841L-12.484 -24H-13.484L-13.484 -12.4841L-25 -12.4841V-11.4841L-13.484 -11.4841V0.344017L-25 0.344015V1.34402L-13.484 1.34402L-13.484 13.1718H-25V14.1718H-13.484V26H-25V27H-13.484V38.8282H-25V39.8282H-13.484L-13.484 51.656H-25V52.656H-13.484V64.4841H-25V65.4841H-13.484ZM63.484 -11.4841L51.6558 -11.4841V0.344023L63.484 0.344025V-11.4841ZM63.484 1.34402L51.6558 1.34402V13.1718L63.484 13.1718V1.34402ZM63.484 14.1718L51.6558 14.1718V26L63.484 26V14.1718ZM63.484 27L51.6558 27V38.8282L63.484 38.8282V27ZM63.484 39.8282L51.6558 39.8282V51.656L63.484 51.656V39.8282ZM63.484 52.656L51.6558 52.656V64.4841L63.484 64.4841V52.656ZM50.6558 52.656V64.4841H38.8282V52.656H50.6558ZM50.6558 39.8282V51.656H38.8282V39.8282H50.6558ZM50.6558 27V38.8282H38.8282V27H50.6558ZM50.6558 14.1718V26H38.8282V14.1718H50.6558ZM50.6558 1.34402V13.1718H38.8282V1.34402H50.6558ZM50.6558 -11.4841V0.344023H38.8282V-11.4841L50.6558 -11.4841ZM37.8282 -11.4841L26 -11.4841V0.344021H37.8282V-11.4841ZM37.8282 1.34402H26V13.1718H37.8282V1.34402ZM37.8282 14.1718H26V26H37.8282V14.1718ZM37.8282 27H26V38.8282H37.8282V27ZM37.8282 39.8282H26V51.656H37.8282V39.8282ZM37.8282 52.656H26V64.4841H37.8282V52.656ZM25 52.656V64.4841H13.1718V52.656H25ZM25 39.8282V51.656H13.1718V39.8282H25ZM25 27V38.8282H13.1718V27H25ZM25 14.1718V26H13.1718V14.1718H25ZM25 1.34402V13.1718H13.1718V1.34402H25ZM25 -11.4841V0.344021H13.1718V-11.4841L25 -11.4841ZM12.1718 -11.4841L0.344187 -11.4841V0.344019H12.1718V-11.4841ZM12.1718 1.34402H0.344185V13.1718H12.1718V1.34402ZM12.1718 14.1718H0.344185V26H12.1718V14.1718ZM12.1718 27H0.344185V38.8282H12.1718V27ZM12.1718 39.8282H0.344185L0.344183 51.656H12.1718V39.8282ZM12.1718 52.656H0.344183V64.4841H12.1718V52.656ZM-0.655817 52.656V64.4841H-12.484V52.656H-0.655817ZM-0.655815 39.8282L-0.655817 51.656H-12.484L-12.484 39.8282H-0.655815ZM-0.655815 27V38.8282H-12.484V27H-0.655815ZM-0.655815 14.1718V26H-12.484V14.1718H-0.655815ZM-0.655815 1.34402V13.1718H-12.484L-12.484 1.34402L-0.655815 1.34402ZM-0.655813 -11.4841V0.344019L-12.484 0.344017V-11.4841L-0.655813 -11.4841Z" fill="url(#paint0_radial_58_356)" fill-opacity="0.8"/>
<path fill-rule="evenodd" clip-rule="evenodd" d="M255.516 241.484L255.516 252H256.516L256.516 241.484H268.344V252H269.344V241.484H281.172V252H282.172V241.484H294V252H295V241.484H306.828V252H307.828V241.484H319.656V252H320.656V241.484L332.484 241.484V252H333.484V241.484H344V240.484H333.484V228.656H344V227.656H333.484V215.828H344V214.828H333.484V203H344V202H333.484V190.172H344V189.172H333.484V177.344H344V176.344H333.484V164.516L344 164.516V163.516L333.484 163.516V152H332.484V163.516L320.656 163.516V152H319.656V163.516L307.828 163.516V152H306.828V163.516L295 163.516V152H294V163.516L282.172 163.516V152H281.172V163.516L269.344 163.516V152H268.344V163.516L256.516 163.516L256.516 152H255.516L255.516 163.516L244 163.516V164.516L255.516 164.516V176.344L244 176.344V177.344L255.516 177.344L255.516 189.172H244V190.172H255.516V202H244V203H255.516V214.828H244V215.828H255.516L255.516 227.656H244V228.656H255.516V240.484H244V241.484H255.516ZM332.484 164.516L320.656 164.516V176.344L332.484 176.344V164.516ZM332.484 177.344L320.656 177.344V189.172L332.484 189.172V177.344ZM332.484 190.172L320.656 190.172V202L332.484 202V190.172ZM332.484 203L320.656 203V214.828L332.484 214.828V203ZM332.484 215.828L320.656 215.828V227.656L332.484 227.656V215.828ZM332.484 228.656L320.656 228.656V240.484L332.484 240.484V228.656ZM319.656 228.656V240.484H307.828V228.656H319.656ZM319.656 215.828V227.656H307.828V215.828H319.656ZM319.656 203V214.828H307.828V203H319.656ZM319.656 190.172V202H307.828V190.172H319.656ZM319.656 177.344V189.172H307.828V177.344H319.656ZM319.656 164.516V176.344H307.828V164.516L319.656 164.516ZM306.828 164.516L295 164.516V176.344H306.828V164.516ZM306.828 177.344H295V189.172H306.828V177.344ZM306.828 190.172H295V202H306.828V190.172ZM306.828 203H295V214.828H306.828V203ZM306.828 215.828H295V227.656H306.828V215.828ZM306.828 228.656H295V240.484H306.828V228.656ZM294 228.656V240.484H282.172V228.656H294ZM294 215.828V227.656H282.172V215.828H294ZM294 203V214.828H282.172V203H294ZM294 190.172V202H282.172V190.172H294ZM294 177.344V189.172H282.172V177.344H294ZM294 164.516V176.344H282.172V164.516L294 164.516ZM281.172 164.516L269.344 164.516V176.344H281.172V164.516ZM281.172 177.344H269.344V189.172H281.172V177.344ZM281.172 190.172H269.344V202H281.172V190.172ZM281.172 203H269.344V214.828H281.172V203ZM281.172 215.828H269.344L269.344 227.656H281.172V215.828ZM281.172 228.656H269.344V240.484H281.172V228.656ZM268.344 228.656V240.484H256.516V228.656H268.344ZM268.344 215.828L268.344 227.656H256.516L256.516 215.828H268.344ZM268.344 203V214.828H256.516V203H268.344ZM268.344 190.172V202H256.516V190.172H268.344ZM268.344 177.344V189.172H256.516L256.516 177.344L268.344 177.344ZM268.344 164.516V176.344L256.516 176.344V164.516L268.344 164.516Z" fill="url(#paint1_radial_58_356)" fill-opacity="0.8"/>
</g>
<defs>
<radialGradient id="paint0_radial_58_356" cx="0" cy="0" r="1" gradientUnits="userSpaceOnUse" gradientTransform="translate(25 26) rotate(90) scale(50)">
<stop stop-color="#B9D719"/>
<stop offset="0.524" stop-color="#2B2B2B"/>
</radialGradient>
<radialGradient id="paint1_radial_58_356" cx="0" cy="0" r="1" gradientUnits="userSpaceOnUse" gradientTransform="translate(294 202) rotate(90) scale(50)">
<stop stop-color="#B9D719"/>
<stop offset="0.524" stop-color="#2B2B2B"/>
</radialGradient>
<clipPath id="clip0_58_356">
<rect width="320" height="228" fill="white"/>
</clipPath>
</defs>
</svg>
