<svg width="209" height="40" viewBox="0 0 209 40" fill="none" xmlns="http://www.w3.org/2000/svg">
<path fill-rule="evenodd" clip-rule="evenodd" d="M18.8 25.1L22.8 38.6C22.9 39.1 23.3 39 23.5 38.7L30.7001 28.3C31.0001 27.9 30.9001 27.4 30.6 27.1H30.5L18.8 18.1V25.1ZM31.4 19.7L35.1 6.99999C35.3 6.29999 35 5.99999 34.2001 6.59999L19.1 17.1L25.4 22L31.2001 20C31.3001 19.9 31.4 19.8 31.4 19.7Z" fill="#B9D719"/>
<path fill-rule="evenodd" clip-rule="evenodd" d="M17.9 25.1L13.9 38.6C13.8 39.1 13.4 39 13.2 38.7L6.00004 28.2C5.70004 27.8 5.80004 27.3 6.10004 27H6.20004L17.9 18V25.1ZM5.20004 19.7L1.60004 7C1.40004 6.3 1.70004 6 2.50004 6.5L17.6 17.1L11.2 22L5.40004 20C5.30004 19.9 5.20004 19.8 5.20004 19.7Z" fill="#686868"/>
<path d="M4.29998 2.10001C4.99998 0.800015 6.89998 0.500015 8.69998 1.40002C10.5 2.30002 11.3 4.10002 10.6 5.40002C9.89998 6.70002 7.89998 7.00002 6.09998 6.10002C4.29998 5.20002 3.59998 3.30001 4.29998 2.10001Z" stroke="#686868" stroke-width="0.66" stroke-miterlimit="2.61"/>
<path d="M8.89993 1.5C8.89993 1.5 10.3999 5.2 6.29993 6.1M8.79993 4.5C8.79993 4.5 15.5999 6.8 18.1999 16.9" stroke="#686868" stroke-width="0.66" stroke-miterlimit="2.61" stroke-linecap="round"/>
<path d="M32.3 2.10001C31.6 0.800015 29.7 0.500015 27.9 1.40002C26.1 2.30002 25.4 4.10002 26 5.40002C26.6 6.70002 28.6 7.00002 30.4 6.10002C32.1 5.20002 32.9 3.30001 32.3 2.10001Z" stroke="#686868" stroke-width="0.66" stroke-miterlimit="2.61"/>
<path d="M27.6999 1.5C27.6999 1.5 26.1999 5.2 30.2999 6.1M27.6999 4.5C27.6999 4.5 20.8999 6.8 18.2999 16.9" stroke="#686868" stroke-width="0.66" stroke-miterlimit="2.61" stroke-linecap="round"/>
<path d="M37.7 30.6V28.8H39.5999V16.8H37.7V15H43.4V16.8H41.5V28.8H43.4V30.6H37.7ZM46.0999 30.6V28.1H48V30.6H46.0999ZM54.2999 30.6V16.8H49.7V15H60.7999V16.8H56.2V30.6H54.2999ZM62.5 30.6V28.1H64.4V30.6H62.5Z" fill="#686868"/>
<path d="M71.4 30.6L66.1 15.1H68.1L72.6 28.8H73.1L77.6 15.1H79.6L74.3 30.6H71.4ZM81.7 30.6V15.1H92V16.9H83.7V21.6H91.1V23.3H83.7V28.8H92V30.6H81.7ZM94.9 30.6V15.1H103.3L106.5 18.4V27.4L103.3 30.7H94.9V30.6ZM96.8 28.9H102.4L104.6 26.7V19L102.4 16.8H96.8V28.9ZM107.9 30.6L113.1 15.1H116.1L121.3 30.6H119.3L118 26.6H111.2L109.9 30.6H107.9ZM111.8 24.9H117.5L114.9 16.9H114.4L111.8 24.9ZM123.5 30.6V15.1H126.1L133 27.6V15.1H134.9V30.6H132.6L125.8 18.3H125.3V30.6H123.5ZM141.7 30.6V16.8H137V15H148.1V16.8H143.5V30.6H141.7Z" fill="#B9D719"/>
<path d="M79.6 38.2V33.2H82.5L83.6 34.3V37.2L82.5 38.3H79.6V38.2ZM80.5 37.5H82.1L82.7 36.9V34.6L82.1 34H80.5V37.5ZM85.2 38.2L84.4 37.4V35.4L85.2 34.6H86.8L87.6 35.4V36.7H85.3V37.2L85.6 37.5H87.6V38.2H85.2ZM85.2 36.1H86.7V35.6L86.4 35.3H85.5L85.2 35.6V36.1ZM89.2 38.2L88.4 37.4V35.4L89.2 34.6H90.9L91.6 35.3V36H90.8V35.6L90.5 35.3H89.6L89.3 35.6V37.2L89.6 37.5H91.6V38.2H89.2ZM93.1 38.2L92.3 37.4V35.4L93.1 34.6H94.9L95.7 35.4V37.4L94.9 38.2H93.1ZM93.4 37.6H94.4L94.7 37.3V35.6L94.4 35.3H93.4L93.1 35.6V37.3L93.4 37.6ZM97.2 38.2L96.4 37.4V35.4L97.2 34.6H98.5L99 35.1V33.1H99.8V38.1H99V37.6L98.5 38.1H97.2V38.2ZM98.3 37.6L99 36.9V36L98.3 35.3H97.6L97.3 35.6V37.3L97.6 37.6H98.3ZM101.5 38.2L100.7 37.4V35.4L101.5 34.6H103.1L103.9 35.4V36.7H101.6V37.2L101.9 37.5H103.9V38.2H101.5ZM101.6 36.1H103.1V35.6L102.8 35.3H101.9L101.6 35.6V36.1ZM107.1 39.5L107.7 38H107.4L106 34.7H106.9L107.8 37.2H108L108.9 34.7H109.8L107.8 39.5H107.1ZM111 38.2L110.2 37.4V35.4L111 34.6H112.8L113.6 35.4V37.4L112.8 38.2H111ZM111.4 37.6H112.4L112.7 37.3V35.6L112.4 35.3H111.4L111.1 35.6V37.3L111.4 37.6ZM115.2 38.2L114.4 37.4V34.6H115.2V37.2L115.5 37.5H116.2L116.9 36.8V34.6H117.7V38.1H117V37.6L116.5 38.1H115.2V38.2ZM118.8 38.2V34.7H119.6V35.3L120.2 34.7H121V35.5H120.2L119.6 36.1V38.2H118.8ZM123.9 38.2L123.1 37.4V35.4L123.9 34.6H125.2L125.7 35.1V33.1H126.5V38.1H125.7V37.6L125.2 38.1H123.9V38.2ZM125 37.6L125.7 36.9V36L125 35.3H124.3L124 35.6V37.3L124.3 37.6H125ZM127.6 38.2V34.7H128.4V35.3L129 34.7H129.8V35.5H129L128.4 36.1V38.2H127.6ZM131 38.2L130.2 37.4V35.4L131 34.6H132.6L133.4 35.4V36.7H131.1V37.2L131.4 37.5H133.4V38.2H131ZM131.1 36.1H132.6V35.6L132.3 35.3H131.4L131.1 35.6V36.1ZM134.6 38.2L133.8 37.4V36.6L134.6 35.8H136.3V35.5L136 35.2H134.3V34.5H136.4L137.2 35.3V38.1H136.4V37.6L135.9 38.1H134.6V38.2ZM135 37.6H135.6L136.3 36.9V36.6H135L134.7 36.9V37.3L135 37.6ZM138.1 38.2V34.7H138.9V35.3L139.5 34.7H140.8L141.4 35.3L142 34.7H143.3L144.1 35.5V38.3H143.3V35.7L143 35.4H142.3L141.6 36.1V38.3H140.8V35.7L140.5 35.4H139.8L139 36.2V38.3H138.1V38.2ZM145.2 38.2V37.5H147.1L147.4 37.2V37L147.1 36.7H145.8L145 36V35.3L145.7 34.6H147.8V35.3H146.1L145.8 35.6V35.8L146.1 36.1H147.4L148.1 36.8V37.6L147.4 38.3H145.2V38.2Z" fill="#686868"/>
<path d="M179.37 38.71C181.44 36.87 185.02 33.8 188.5 30.81C189.76 29.73 191 28.66 192.18 27.65L192.21 27.63C194.27 25.68 195.51 24.1 196.06 23.33C196.37 22.9 196.59 22.44 196.72 21.95C197.13 20.47 197.03 18.87 196.44 17.43C195.83 15.94 194.77 14.73 193.36 13.94C191.86 13.11 190.14 12.86 188.52 13.21H188.49C184.81 14.15 183.26 17.07 183.04 19.49C183 19.96 183.01 20.38 183.04 20.73H180.3L180.54 22.36H184.03L185.16 22.35L184.79 21.28C184.79 21.28 184.56 20.58 184.65 19.64C184.73 18.74 185.28 15.71 188.87 14.79C190.08 14.53 191.43 14.73 192.56 15.35C194.74 16.57 195.8 19.11 195.14 21.51C195.06 21.81 194.92 22.11 194.72 22.38C194.3 22.96 193.12 24.51 191.09 26.43C189.92 27.43 188.68 28.5 187.43 29.58C183.54 32.92 179.51 36.38 177.6 38.1L176.91 38.7H179.36" fill="#D0DE5E"/>
<path d="M172.99 3.95001V7.29001H168.96L172.99 3.95001Z" fill="#D0DE5E"/>
<path d="M178.16 38.71L182.26 35.14H199.68V38.71H178.16Z" fill="#22587A"/>
<path d="M178.16 38.71L188.58 29.65L196.81 27L183.7 38.71H178.16Z" fill="#22587A"/>
<path d="M195.98 21.49C195.54 24.15 188.58 29.65 188.58 29.65C188.58 29.65 189.91 29.97 192.01 29.6C198.95 28.02 199.6 21.49 199.6 21.49C199.6 21.49 197.23 21.49 195.98 21.49Z" fill="#22587A"/>
<mask id="mask0_235_4335" style="mask-type:luminance" maskUnits="userSpaceOnUse" x="179" y="10" width="21" height="12">
<path d="M199.87 10.32H179.77V21.54H199.87V10.32Z" fill="white"/>
</mask>
<g mask="url(#mask0_235_4335)">
<path d="M190 10.32C184.64 10.32 180.3 14.66 180.3 20.02C180.3 25.38 184.64 29.72 190 29.72C195.36 29.72 199.7 25.38 199.7 20.02C199.7 14.66 195.36 10.32 190 10.32ZM190 26.18C186.6 26.18 183.85 23.43 183.85 20.03C183.85 16.63 186.6 13.88 190 13.88C193.4 13.88 196.15 16.63 196.15 20.03C196.15 23.43 193.4 26.18 190 26.18Z" fill="#22587A"/>
</g>
<path d="M175.43 1.98001L171.02 5.58001V36.39H175.43V1.98001Z" fill="#22587A"/>
<path d="M188.45 8.07C188.45 8.07 188.42 8.03 188.41 8.01L188.14 5.96C188.14 5.96 188.14 5.92 188.13 5.91L186.15 3.06C186.15 3.06 186.13 3.03 186.13 3.02C186.13 2.98 186.15 2.95 186.21 2.95L186.97 2.85C187.02 2.85 187.06 2.86 187.09 2.9L188.44 4.9C188.44 4.9 188.47 4.92 188.49 4.9L189.29 2.62C189.29 2.62 189.34 2.54 189.39 2.54L190.16 2.44C190.16 2.44 190.22 2.44 190.24 2.46C190.26 2.48 190.26 2.5 190.24 2.54L189.06 5.81C189.06 5.81 189.05 5.85 189.06 5.86L189.33 7.91C189.33 7.91 189.33 7.96 189.31 7.98C189.29 8 189.27 8.01 189.25 8.02L188.54 8.11C188.54 8.11 188.49 8.11 188.47 8.09L188.45 8.07Z" fill="#231F20"/>
<path d="M195.83 4.13001C195.83 4.13001 195.78 4.15001 195.76 4.14001L193.19 3.55001C193.19 3.55001 193.15 3.55001 193.14 3.58001L192.81 4.99001C192.81 4.99001 192.81 5.03001 192.84 5.04001L194.57 5.44001C194.57 5.44001 194.61 5.46001 194.63 5.48001C194.64 5.50001 194.65 5.53001 194.64 5.55001L194.51 6.12001C194.51 6.12001 194.49 6.16001 194.47 6.18001C194.45 6.19001 194.42 6.20001 194.4 6.19001L192.67 5.79001C192.67 5.79001 192.63 5.79001 192.62 5.82001L192.28 7.27001C192.28 7.27001 192.28 7.31001 192.31 7.32001L194.88 7.91001C194.88 7.91001 194.92 7.93001 194.94 7.95001C194.95 7.97001 194.96 8.00001 194.95 8.02001L194.82 8.59001C194.82 8.59001 194.8 8.63001 194.78 8.65001C194.76 8.66001 194.73 8.67001 194.71 8.66001L191.32 7.88001C191.32 7.88001 191.28 7.86001 191.26 7.84001C191.25 7.82001 191.24 7.80001 191.25 7.77001L192.43 2.68001C192.43 2.68001 192.45 2.64001 192.47 2.62001C192.49 2.61001 192.51 2.60001 192.54 2.61001L195.93 3.39001C195.93 3.39001 195.97 3.41001 195.99 3.43001C196 3.45001 196.01 3.48001 196 3.50001L195.87 4.07001C195.87 4.07001 195.85 4.11001 195.83 4.13001Z" fill="#231F20"/>
<path d="M197.95 10.65L198.21 9.82C198.21 9.82 198.21 9.78 198.2 9.77L196.52 8.61C196.52 8.61 196.49 8.61 196.47 8.61L195.79 9.15C195.79 9.15 195.71 9.19 195.66 9.15L195.02 8.71C195.02 8.71 194.98 8.67 194.98 8.65C194.98 8.63 194.99 8.6 195.02 8.58L199.37 5.23C199.37 5.23 199.45 5.19 199.5 5.23L200.3 5.78C200.3 5.78 200.36 5.85 200.34 5.9L198.76 11.16C198.76 11.16 198.76 11.18 198.74 11.2C198.71 11.24 198.68 11.24 198.63 11.2L197.99 10.76C197.99 10.76 197.93 10.69 197.95 10.64V10.65ZM197.11 8.17L198.4 9.06C198.4 9.06 198.44 9.07 198.45 9.04L199.27 6.46C199.27 6.46 199.27 6.43 199.27 6.42C199.27 6.42 199.25 6.42 199.23 6.43L197.11 8.11C197.11 8.11 197.09 8.15 197.11 8.17Z" fill="#231F20"/>
<path d="M200.53 13.98L201.83 11.91C201.83 11.91 201.84 11.87 201.83 11.85L201.32 11.07C201.32 11.07 201.29 11.04 201.27 11.06L199.43 12.26C199.43 12.26 199.39 12.28 199.36 12.27C199.33 12.27 199.32 12.25 199.3 12.23L198.91 11.64C198.91 11.64 198.89 11.6 198.9 11.57C198.9 11.54 198.92 11.53 198.94 11.51L203.31 8.64C203.31 8.64 203.35 8.62 203.38 8.63C203.4 8.63 203.42 8.65 203.44 8.67L204.61 10.45C204.78 10.71 204.88 10.98 204.9 11.26C204.92 11.53 204.87 11.79 204.74 12.04C204.61 12.28 204.42 12.49 204.16 12.66C203.86 12.85 203.56 12.94 203.25 12.93C202.94 12.91 202.66 12.8 202.4 12.58C202.4 12.58 202.39 12.57 202.37 12.57C202.36 12.57 202.35 12.57 202.34 12.59L201.06 14.74C201.06 14.74 201.04 14.77 201.03 14.78C201 14.8 200.96 14.79 200.93 14.74L200.52 14.12C200.52 14.12 200.49 14.03 200.52 13.99L200.53 13.98ZM203.21 9.79L201.92 10.63C201.92 10.63 201.89 10.66 201.91 10.68L202.55 11.65C202.69 11.86 202.86 11.98 203.06 12.03C203.27 12.08 203.47 12.03 203.67 11.9C203.87 11.77 203.99 11.6 204.04 11.39C204.08 11.18 204.04 10.97 203.9 10.77L203.26 9.8C203.26 9.8 203.23 9.77 203.21 9.79Z" fill="#231F20"/>
<path d="M201.38 15.87C201.44 15.55 201.57 15.29 201.76 15.08C201.95 14.87 202.2 14.73 202.51 14.67L202.7 14.63C202.7 14.63 202.75 14.63 202.77 14.64C202.79 14.65 202.8 14.67 202.81 14.7L202.96 15.37C202.96 15.37 202.96 15.42 202.95 15.44C202.94 15.46 202.92 15.47 202.89 15.48L202.75 15.51C202.52 15.56 202.35 15.71 202.24 15.95C202.13 16.19 202.12 16.49 202.19 16.85C202.26 17.16 202.37 17.37 202.54 17.5C202.7 17.63 202.89 17.67 203.1 17.62C203.24 17.59 203.35 17.52 203.43 17.41C203.51 17.3 203.57 17.16 203.62 16.99C203.67 16.81 203.71 16.55 203.77 16.21C203.82 15.82 203.88 15.51 203.95 15.26C204.02 15.01 204.13 14.79 204.3 14.6C204.47 14.41 204.7 14.28 205 14.21C205.44 14.11 205.83 14.2 206.16 14.46C206.49 14.73 206.71 15.13 206.83 15.67C206.91 16.05 206.92 16.4 206.85 16.71C206.78 17.03 206.65 17.29 206.45 17.51C206.25 17.72 206 17.86 205.69 17.93L205.56 17.96C205.56 17.96 205.51 17.96 205.49 17.95C205.47 17.94 205.45 17.92 205.45 17.89L205.3 17.21C205.3 17.21 205.3 17.16 205.31 17.14C205.32 17.12 205.34 17.11 205.37 17.1L205.45 17.08C205.69 17.03 205.87 16.89 205.99 16.66C206.11 16.43 206.13 16.14 206.06 15.8C206 15.52 205.89 15.32 205.75 15.19C205.6 15.06 205.42 15.02 205.21 15.07C205.06 15.1 204.94 15.17 204.87 15.27C204.79 15.37 204.73 15.51 204.69 15.69C204.65 15.87 204.6 16.14 204.55 16.5C204.49 16.89 204.43 17.2 204.37 17.44C204.31 17.68 204.19 17.9 204.03 18.09C203.86 18.29 203.63 18.42 203.34 18.48C202.89 18.58 202.49 18.48 202.15 18.21C201.81 17.93 201.58 17.51 201.45 16.93C201.36 16.54 201.35 16.18 201.41 15.86L201.38 15.87Z" fill="#231F20"/>
<path d="M200.19 28.11C200.13 28.11 200.07 28.09 200.03 28.04C199.94 27.95 199.94 27.8 200.03 27.71C201.87 25.88 203.13 23.56 203.68 21.01C203.71 20.88 203.83 20.81 203.96 20.83C204.09 20.86 204.16 20.98 204.14 21.11C203.57 23.75 202.26 26.15 200.36 28.04C200.31 28.09 200.26 28.11 200.2 28.11H200.19Z" fill="#231F20"/>
<path d="M178.67 13.48C178.67 13.48 178.61 13.48 178.58 13.46C178.46 13.41 178.41 13.27 178.46 13.15C179.54 10.69 181.3 8.61002 183.56 7.12002C183.67 7.05002 183.81 7.08002 183.88 7.19002C183.95 7.30002 183.92 7.44002 183.81 7.51002C181.63 8.95002 179.93 10.96 178.88 13.34C178.84 13.43 178.76 13.48 178.67 13.48Z" fill="#231F20"/>
<path d="M158.64 2.5V37.5" stroke="#231F20" stroke-width="0.75" stroke-miterlimit="10"/>
</svg>
